<?xml version="1.0" encoding="UTF-8"?>
<svg id="Layer_1" data-name="Layer 1" xmlns="http://www.w3.org/2000/svg" viewBox="0 0 777 105.86">
  <defs>
    <style>
      .cls-1 {
        letter-spacing: 0em;
      }

      .cls-2 {
        letter-spacing: -.02em;
      }

      .cls-3 {
        letter-spacing: 0em;
      }

      .cls-4 {
        fill: #231f20;
        font-family: Lexend-Regular, Lexend;
        font-size: 96.68px;
      }
    </style>
  </defs>
  <text class="cls-4" transform="translate(195.41 82.17)"><tspan x="0" y="0">mon</tspan><tspan class="cls-2" x="206.01" y="0">k</tspan><tspan class="cls-3" x="258.8" y="0">e</tspan><tspan class="cls-1" x="314.48" y="0">ytype</tspan></text>
  <g>
    <path d="m135.39,72.44h0c2.99,0,5.42,2.43,5.42,5.42h0c0,2.99-2.43,5.42-5.42,5.42h0c-2.99,0-5.42-2.43-5.42-5.42h0c0-2.99,2.43-5.42,5.42-5.42Z"/>
    <path d="m59.57,72.44h32.49c2.99,0,5.42,2.43,5.42,5.42h0c0,2.99-2.43,5.42-5.42,5.42h-32.49c-2.99,0-5.42-2.43-5.42-5.42h0c0-2.99,2.43-5.42,5.42-5.42Z"/>
    <path d="m48.74,39.95h0c2.99,0,5.42,2.43,5.42,5.42v10.83c0,2.99-2.43,5.42-5.42,5.42h0c-2.99,0-5.42-2.43-5.42-5.42v-10.83c0-2.99,2.43-5.42,5.42-5.42Z"/>
    <path d="m21.67,45.08c.15-8.84,7.37-15.97,16.24-15.97h0c4.16,0,7.96,1.57,10.83,4.14,2.88-2.57,6.67-4.14,10.83-4.14h0c8.87,0,16.1,7.13,16.24,15.97,0,.09,0,.19,0,.28h0v10.83c0,2.99-2.43,5.42-5.42,5.42h0c-2.99,0-5.42-2.43-5.42-5.42v-10.83h0c0-2.99-2.43-5.42-5.42-5.42s-5.42,2.43-5.42,5.42h0v10.83c0,2.99-2.43,5.42-5.42,5.42h0c-2.99,0-5.42-2.43-5.42-5.42v-10.83h0c0-2.99-2.43-5.42-5.42-5.42s-5.42,2.43-5.42,5.42h0v10.83c0,2.99-2.43,5.42-5.42,5.42h0c-2.99,0-5.42-2.43-5.42-5.42v-10.83h0c0-.09,0-.19,0-.28Z"/>
    <path d="m119.14,61.61v16.25c0,2.99-2.43,5.42-5.42,5.42h0c-2.99,0-5.42-2.43-5.42-5.42v-16.25h-15.61c-3.34,0-6.05-2.43-6.05-5.42h0c0-2.99,2.71-5.42,6.05-5.42h42.05c3.34,0,6.05,2.43,6.05,5.42h0c0,2.99-2.71,5.42-6.05,5.42h-15.61Z"/>
    <path d="m113.73,29.11h21.66c2.99,0,5.42,2.43,5.42,5.42h0c0,2.99-2.43,5.42-5.42,5.42h-21.66c-2.99,0-5.42-2.43-5.42-5.42h0c0-2.99,2.43-5.42,5.42-5.42Z"/>
    <path d="m27.08,72.44h10.83c2.99,0,5.42,2.43,5.42,5.42h0c0,2.99-2.43,5.42-5.42,5.42h-10.83c-2.99,0-5.42-2.43-5.42-5.42h0c0-2.99,2.43-5.42,5.42-5.42Z"/>
    <path d="m89.36,29.11h2.71c2.99,0,5.42,2.43,5.42,5.42h0c0,2.99-2.43,5.42-5.42,5.42h-2.71c-2.99,0-5.42-2.43-5.42-5.42h0c0-2.99,2.43-5.42,5.42-5.42Z"/>
    <path d="m10.83,72.44H0v-37.91C0,19.58,12.13,7.45,27.08,7.45h108.31c14.94,0,27.08,12.13,27.08,27.08v43.32c0,14.94-12.13,27.08-27.08,27.08H27.08c-14.94,0-27.08-12.13-27.08-27.08v-10.83h10.83v10.83c0,8.97,7.28,16.25,16.25,16.25h108.31c8.97,0,16.25-7.28,16.25-16.25v-43.32c0-8.97-7.28-16.25-16.25-16.25H27.08c-8.97,0-16.25,7.28-16.25,16.25v37.91Z"/>
  </g>
</svg>